<?xml version="1.0" encoding="utf-8"?><svg width="339" height="316" viewBox="0 0 339 316" xmlns="http://www.w3.org/2000/svg" xmlns:xlink="http://www.w3.org/1999/xlink"><svg width="21" height="12" fill="none" viewBox="0 0 21 12" id="accordion-arrow-s-g" xmlns="http://www.w3.org/2000/svg"><path opacity=".6" d="M19.81 1.244h0a1.079 1.079 0 0 0-1.518 0h1.518zm0 0c.42.417.42 1.093 0 1.509l-7.85 7.784a2.036 2.036 0 0 1-2.862 0L1.19 2.697h0a1.061 1.061 0 0 1-.01-1.499 1.08 1.08 0 0 1 1.53-.011h0l7.235 7.176a.83.83 0 0 0 1.168 0l7.179-7.119h1.518z" fill="#A1A1A1" stroke="#A1A1A1" stroke-width=".25"/></svg><svg width="21" height="12" fill="none" viewBox="0 0 21 12" id="accordion-arrow-s-o" x="21" y="12" xmlns="http://www.w3.org/2000/svg"><path d="M19.81 1.244h0a1.079 1.079 0 0 0-1.518 0h1.518zm0 0c.42.417.42 1.093 0 1.509l-7.85 7.784a2.036 2.036 0 0 1-2.862 0L1.19 2.697h0a1.061 1.061 0 0 1-.01-1.499 1.08 1.08 0 0 1 1.53-.011h0l7.235 7.176a.83.83 0 0 0 1.168 0l7.179-7.119h1.518z" fill="#F68C28" stroke="#F68C28" stroke-width=".25"/></svg><svg width="12" height="12" viewBox="0 0 451.846 451.847" id="btn-arrow" x="42" y="24" xmlns="http://www.w3.org/2000/svg"><path d="M345.441 248.292L151.154 442.573c-12.359 12.365-32.397 12.365-44.75 0-12.354-12.354-12.354-32.391 0-44.744L278.318 225.92 106.409 54.017c-12.354-12.359-12.354-32.394 0-44.748 12.354-12.359 32.391-12.359 44.75 0l194.287 194.284c6.177 6.18 9.262 14.271 9.262 22.366 0 8.099-3.091 16.196-9.267 22.373z" fill="#FFF"/></svg><svg width="14" height="8" fill="none" viewBox="0 0 14 8" id="btn-arrow-d" x="54" y="36" xmlns="http://www.w3.org/2000/svg"><path opacity=".7" fill-rule="evenodd" clip-rule="evenodd" d="M12.775.705a1.106 1.106 0 0 0-1.51 0L6.697 4.973 2.13.705A1.106 1.106 0 0 0 .62 2.322l4.712 4.402a2 2 0 0 0 2.73 0l4.713-4.402a1.106 1.106 0 0 0 0-1.617z" fill="#A1A1A1"/></svg><svg width="14" height="8" fill="none" viewBox="0 0 14 8" id="btn-arrow-s-o" x="68" y="44" xmlns="http://www.w3.org/2000/svg"><path fill-rule="evenodd" clip-rule="evenodd" d="M12.775.705a1.106 1.106 0 0 0-1.51 0L6.697 4.973 2.13.705A1.106 1.106 0 0 0 .62 2.322l4.712 4.402a2 2 0 0 0 2.73 0l4.713-4.402a1.106 1.106 0 0 0 0-1.617z" fill="#F68C28"/></svg><svg viewBox="0 0 350 350" width="12" height="12" id="btn-user" x="82" y="52" xmlns="http://www.w3.org/2000/svg"><g fill="#FFF"><path d="M175 171.173c38.914 0 70.463-38.318 70.463-85.586C245.463 38.318 235.105 0 175 0s-70.465 38.318-70.465 85.587c0 47.268 31.549 85.586 70.465 85.586zM41.909 301.853c-.012-2.882-.024-.812 0 0zm266.176 2.251c.038-.789.013-5.474 0 0z"/><path d="M307.935 298.397c-1.305-82.342-12.059-105.805-94.352-120.657 0 0-11.584 14.761-38.584 14.761s-38.586-14.761-38.586-14.761C55.018 192.43 43.61 215.545 42.11 295.722c-.123 6.547-.18 6.891-.202 6.131.005 1.424.011 4.058.011 8.651 0 0 19.592 39.496 133.08 39.496 113.486 0 133.08-39.496 133.08-39.496 0-2.951.002-5.003.005-6.399-.022.47-.066-.441-.149-5.708z"/></g></svg><svg width="11" height="9" fill="none" viewBox="0 0 11 9" id="checked" x="94" y="64" xmlns="http://www.w3.org/2000/svg"><path d="M1 4l3.156 3L10 1" stroke="#F3F3F3" stroke-width="2"/></svg><svg width="18" height="17" fill="none" viewBox="0 0 18 17" id="datapicker-s-b" x="105" y="73" xmlns="http://www.w3.org/2000/svg"><path d="M.875 13.415c0 1.497 1.24 2.71 2.758 2.71h10.734c1.519 0 2.758-1.213 2.758-2.71V2.977a.683.683 0 0 0-.688-.678h-2.1v-.746a.683.683 0 0 0-.69-.678.683.683 0 0 0-.688.678v.746H5.04v-.746a.683.683 0 0 0-.688-.678.683.683 0 0 0-.688.678v.746h-2.1s0 0 0 0a.683.683 0 0 0-.689.678v10.438zm1.377-9.76h1.412v.635c0 .377.31.679.688.679a.683.683 0 0 0 .688-.679v-.635h7.92v.635c0 .377.31.679.688.679a.683.683 0 0 0 .688-.679v-.635h1.412V5.95H2.252V3.655zm13.496 9.76c0 .745-.617 1.354-1.381 1.354H3.633c-.764 0-1.381-.61-1.381-1.354v-6.11h13.496v6.11z" fill="#2B3134" stroke="#2B3134" stroke-width=".25"/></svg><svg width="18" height="17" fill="none" viewBox="0 0 18 17" id="datapicker-s-g" x="123" y="90" xmlns="http://www.w3.org/2000/svg"><path d="M.875 13.415c0 1.497 1.24 2.71 2.758 2.71h10.734c1.519 0 2.758-1.213 2.758-2.71V2.977a.683.683 0 0 0-.688-.678h-2.1v-.746a.683.683 0 0 0-.69-.678.683.683 0 0 0-.688.678v.746H5.04v-.746a.683.683 0 0 0-.688-.678.683.683 0 0 0-.688.678v.746h-2.1s0 0 0 0a.683.683 0 0 0-.689.678v10.438zm1.377-9.76h1.412v.635c0 .377.31.679.688.679a.683.683 0 0 0 .688-.679v-.635h7.92v.635c0 .377.31.679.688.679a.683.683 0 0 0 .688-.679v-.635h1.412V5.95H2.252V3.655zm13.496 9.76c0 .745-.617 1.354-1.381 1.354H3.633c-.764 0-1.381-.61-1.381-1.354v-6.11h13.496v6.11z" fill="#A1A1A1" stroke="#A1A1A1" stroke-width=".25"/></svg><svg width="14" height="14" fill="none" viewBox="0 0 14 14" id="error-s" x="141" y="107" xmlns="http://www.w3.org/2000/svg"><circle cx="7" cy="7" r="7" fill="#E0283E"/><path fill-rule="evenodd" clip-rule="evenodd" d="M6.125 3.74c0-.375.392-.678.875-.678s.875.303.875.677v3.882c0 .374-.392.678-.875.678s-.875-.304-.875-.678V3.74zm0 6.116c0-.374.392-.678.875-.678s.875.304.875.678v.404c0 .374-.392.677-.875.677s-.875-.303-.875-.677v-.404z" fill="#fff"/></svg><svg id="portfolio-plus" width="40" height="40" viewBox="0 0 40 40" x="155" y="121" xmlns="http://www.w3.org/2000/svg"><defs><style>.kcls-1{fill:#fff;fill-rule:evenodd}</style></defs><path class="kcls-1" d="M778 1326.33h40v1.34h-40v-1.34z" transform="translate(-778 -1307)"/><path id="kRectangle_65_copy" data-name="Rectangle 65 copy" class="kcls-1" d="M798.667 1307v40h-1.334v-40h1.334z" transform="translate(-778 -1307)"/></svg><svg id="slider-prev" width="43" height="43.469" viewBox="0 0 43 43.469" x="195" y="161" xmlns="http://www.w3.org/2000/svg"><defs><style>.lcls-1{fill:#fff;fill-rule:evenodd}</style></defs><path class="lcls-1" d="M135.642 408.731l-12.026 12.16.706.714 12.026-12.16z" transform="translate(-111.5 -399.5)"/><path id="lRectangle_1_copy" data-name="Rectangle 1 copy" class="lcls-1" d="M123.708 421.043l12.181 12.316.709-.717-12.181-12.316z" transform="translate(-111.5 -399.5)"/><circle cx="21.5" cy="21.735" r="21" fill="none" stroke="#fff"/></svg><svg id="slider-prev-hover" data-name="Next + hover" width="42" height="42.469" viewBox="0 0 42 42.469" x="238" y="205" xmlns="http://www.w3.org/2000/svg"><defs><style>.mcls-2{fill-rule:evenodd;fill:#fff}</style></defs><path d="M1464.99 401.517a21.243 21.243 0 1 1-21.01 21.241 21.129 21.129 0 0 1 21.01-21.241z" transform="translate(-1444 -401.531)" fill-rule="evenodd"/><path id="mRectangle_1_copy" data-name="Rectangle 1 copy" class="mcls-2" d="M1474.29 422.56l-12.18 12.317-.71-.717 12.18-12.317z" transform="translate(-1444 -401.531)"/><path class="mcls-2" d="M1462.36 410.248l12.02 12.16-.7.714-12.03-12.16z" transform="translate(-1444 -401.531)"/></svg><svg width="14" height="14" fill="none" viewBox="0 0 14 14" id="upload-close-s-g" x="280" y="248" xmlns="http://www.w3.org/2000/svg"><rect x=".209" y="12.812" width="17.75" height="1.475" rx=".738" transform="rotate(-45 .21 12.812)" fill="#A1A1A1" stroke="#A1A1A1" stroke-width=".25"/><rect x="12.637" y="13.864" width="17.75" height="1.475" rx=".738" transform="rotate(-135 12.637 13.864)" fill="#A1A1A1" stroke="#A1A1A1" stroke-width=".25"/></svg><svg width="16" height="19" fill="none" viewBox="0 0 16 19" id="upload-icon-s-b" x="294" y="262" xmlns="http://www.w3.org/2000/svg"><path d="M15.996 5.168a5.398 5.398 0 0 0-1.693-3.738A5.302 5.302 0 0 0 12.648.368a5.14 5.14 0 0 0-2.13-.364 5.198 5.198 0 0 0-3.664 1.73L.927 8.26c-.19.21-.18.536.025.731l.411.395c.206.198.53.188.723-.024l5.931-6.53c.677-.75 1.669-1.18 2.72-1.18.946 0 1.832.344 2.492.967a3.77 3.77 0 0 1 1.184 2.616 3.77 3.77 0 0 1-.968 2.694l-8.056 8.776a2.18 2.18 0 0 1-1.618.7c-.562 0-1.09-.204-1.483-.576a2.257 2.257 0 0 1-.705-1.555 2.235 2.235 0 0 1 .573-1.6s7.497-8.165 7.51-8.175c.656-.695 1.685.316 1.028 1.01-1.114 1.179-3.977 4.333-5.378 5.882-.19.21-.18.536.024.731l.412.395c.206.198.53.188.723-.024l5.397-5.938a2.368 2.368 0 0 0-.13-3.295 2.258 2.258 0 0 0-2.45-.43 2.203 2.203 0 0 0-.77.554L.999 12.572c-1.412 1.56-1.314 4.004.216 5.447.673.634 1.58.98 2.553.98 1.082 0 2.095-.434 2.78-1.19l8.055-8.776a5.422 5.422 0 0 0 1.394-3.865z" fill="#2B3134"/></svg><svg width="16" height="19" fill="none" viewBox="0 0 16 19" id="upload-icon-s-g" x="310" y="281" xmlns="http://www.w3.org/2000/svg"><path d="M15.996 5.168a5.398 5.398 0 0 0-1.693-3.738A5.302 5.302 0 0 0 12.648.368a5.14 5.14 0 0 0-2.13-.364 5.198 5.198 0 0 0-3.664 1.73L.927 8.26c-.19.21-.18.536.025.731l.411.395c.206.198.53.188.723-.024l5.931-6.53c.677-.75 1.669-1.18 2.72-1.18.946 0 1.832.344 2.492.967a3.77 3.77 0 0 1 1.184 2.616 3.77 3.77 0 0 1-.968 2.694l-8.056 8.776a2.18 2.18 0 0 1-1.618.7c-.562 0-1.09-.204-1.483-.576a2.257 2.257 0 0 1-.705-1.555 2.235 2.235 0 0 1 .573-1.6s7.497-8.165 7.51-8.175c.656-.695 1.685.316 1.028 1.01-1.114 1.179-3.977 4.333-5.378 5.882-.19.21-.18.536.024.731l.412.395c.206.198.53.188.723-.024l5.397-5.938a2.368 2.368 0 0 0-.13-3.295 2.258 2.258 0 0 0-2.45-.43 2.203 2.203 0 0 0-.77.554L.999 12.572c-1.412 1.56-1.314 4.004.216 5.447.673.634 1.58.98 2.553.98 1.082 0 2.095-.434 2.78-1.19l8.055-8.776a5.422 5.422 0 0 0 1.394-3.865z" fill="#A1A1A1"/></svg><svg width="13" height="16" fill="none" viewBox="0 0 13 16" id="upload-loaded-s-o" x="326" y="300" xmlns="http://www.w3.org/2000/svg"><path d="M12.308 3.958L9.14.708C8.801.361 8.354.135 7.8.031v5.302h5.17c-.102-.57-.323-1.028-.66-1.375z" fill="#F68C28"/><path d="M7.475 6.667a.928.928 0 0 1-.69-.292.977.977 0 0 1-.285-.708V0H.975a.928.928 0 0 0-.69.292A.977.977 0 0 0 0 1v14c0 .278.095.514.284.708.19.195.42.292.691.292h11.05a.924.924 0 0 0 .69-.292A.977.977 0 0 0 13 15V6.667H7.475z" fill="#F68C28"/></svg></svg>